<svg xmlns="http://www.w3.org/2000/svg" xmlns:xlink="http://www.w3.org/1999/xlink" width="640" zoomAndPan="magnify" viewBox="0 0 480 479.999983" height="640" preserveAspectRatio="xMidYMid meet" version="1.0"><path fill="#ff8282" d="M 360 432 L 144 432 C 104.25 432 72 399.75 72 360 L 72 120 C 72 80.25 104.25 48 144 48 L 372 48 C 391.875 48 408 64.125 408 84 L 408 300 C 408 315.675781 397.949219 329.023438 384 333.976562 L 384 384 C 397.273438 384 408 394.726562 408 408 C 408 421.273438 397.273438 432 384 432 Z M 144 336 C 130.726562 336 120 346.726562 120 360 C 120 373.273438 130.726562 384 144 384 L 336 384 L 336 336 Z M 168 162 C 168 171.976562 176.023438 180 186 180 L 318 180 C 327.976562 180 336 171.976562 336 162 C 336 152.023438 327.976562 144 318 144 L 186 144 C 176.023438 144 168 152.023438 168 162 Z M 186 216 C 176.023438 216 168 224.023438 168 234 C 168 243.976562 176.023438 252 186 252 L 318 252 C 327.976562 252 336 243.976562 336 234 C 336 224.023438 327.976562 216 318 216 Z M 186 216 " fill-opacity="1" fill-rule="nonzero"/></svg>